<svg xmlns="http://www.w3.org/2000/svg" width="1600" height="900" viewBox="0 0 1600 900" role="img" aria-labelledby="title desc">
  <title id="title">Neutral yacht image placeholder</title>
  <desc id="desc">A simple gold yacht outline over a dark blue sea.</desc>
  <defs>
    <linearGradient id="sky" x1="0" y1="0" x2="0" y2="1">
      <stop offset="0" stop-color="#071827"/>
      <stop offset="1" stop-color="#12324a"/>
    </linearGradient>
    <linearGradient id="sea" x1="0" y1="0" x2="1" y2="0">
      <stop offset="0" stop-color="#0d3b52"/>
      <stop offset="0.5" stop-color="#15536c"/>
      <stop offset="1" stop-color="#0d3b52"/>
    </linearGradient>
  </defs>
  <rect width="1600" height="900" fill="url(#sky)"/>
  <path d="M0 650c180-45 320 45 500 0s320 45 500 0 320 45 600 0v250H0z" fill="url(#sea)"/>
  <g fill="none" stroke="#d9b76e" stroke-linecap="round" stroke-linejoin="round">
    <path d="M390 615h820l-105 115H530z" stroke-width="18"/>
    <path d="M640 615l65-155h300l90 155" stroke-width="16"/>
    <path d="M770 460v-105h120l85 105" stroke-width="14"/>
    <path d="M755 520h300" stroke-width="12" opacity=".75"/>
    <path d="M450 778c175 42 260-38 410 0s250-38 390 0" stroke-width="12" opacity=".75"/>
  </g>
</svg>
